HIERARCHY
ROOT Hips
{
    OFFSET 0.000000 0.000000 0.000000
    CHANNELS 6 Xposition Yposition Zposition Zrotation Xrotation Yrotation
    JOINT Spine
    {
        OFFSET -0.000000 14.517291 0.000000
        CHANNELS 3 Zrotation Xrotation Yrotation
        JOINT Spine1
        {
            OFFSET -0.000000 37.558300 0.000000
            CHANNELS 3 Zrotation Xrotation Yrotation
            JOINT Neck
            {
                OFFSET -0.000000 37.404057 3.400369
                CHANNELS 3 Zrotation Xrotation Yrotation
                JOINT Head
                {
                    OFFSET -0.000000 24.785618 -3.540803
                    CHANNELS 3 Zrotation Xrotation Yrotation
                    End Site
                    {
                        OFFSET -0.000000 35.408028 0.000000
                    }
                }
            }
            JOINT LeftShoulder
            {
                OFFSET 6.992933 33.973492 -0.192664
                CHANNELS 3 Zrotation Xrotation Yrotation
                JOINT LeftArm
                {
                    OFFSET 21.527611 0.000000 0.000000
                    CHANNELS 3 Zrotation Xrotation Yrotation
                    JOINT LeftForeArm
                    {
                        OFFSET 56.353916 0.000000 0.000000
                        CHANNELS 3 Zrotation Xrotation Yrotation
                        JOINT LeftHand
                        {
                            OFFSET 47.774071 0.000000 0.000000
                            CHANNELS 3 Zrotation Xrotation Yrotation
                            End Site
                            {
                                OFFSET 26.556021 0.000000 0.000000
                            }
                        }
                    }
                }
            }
            JOINT RightShoulder
            {
                OFFSET -7.065357 33.973492 -0.192664
                CHANNELS 3 Zrotation Xrotation Yrotation
                JOINT RightArm
                {
                    OFFSET -21.527611 0.000000 0.000000
                    CHANNELS 3 Zrotation Xrotation Yrotation
                    JOINT RightForeArm
                    {
                        OFFSET -56.353916 0.000000 0.000000
                        CHANNELS 3 Zrotation Xrotation Yrotation
                        JOINT RightHand
                        {
                            OFFSET -47.774071 0.000000 0.000000
                            CHANNELS 3 Zrotation Xrotation Yrotation
                            End Site
                            {
                                OFFSET -26.556021 0.000000 0.000000
                            }
                        }
                    }
                }
            }
        }
    }
    JOINT LeftUpLeg
    {
        OFFSET 17.704014 0.000000 0.000000
        CHANNELS 3 Zrotation Xrotation Yrotation
        JOINT LeftLeg
        {
            OFFSET -0.000000 -81.181816 0.000000
            CHANNELS 3 Zrotation Xrotation Yrotation
            JOINT LeftFoot
            {
                OFFSET -0.000000 -62.821102 0.000000
                CHANNELS 3 Zrotation Xrotation Yrotation
                JOINT LeftToeBase
                {
                    OFFSET -0.000000 -11.507608 26.556021
                    CHANNELS 3 Zrotation Xrotation Yrotation
                    End Site
                    {
                        OFFSET -0.000000 0.000000 7.081605
                    }
                }
            }
        }
    }
    JOINT RightUpLeg
    {
        OFFSET -17.704014 0.000000 0.000000
        CHANNELS 3 Zrotation Xrotation Yrotation
        JOINT RightLeg
        {
            OFFSET -0.000000 -81.181816 0.000000
            CHANNELS 3 Zrotation Xrotation Yrotation
            JOINT RightFoot
            {
                OFFSET -0.000000 -62.821102 0.000000
                CHANNELS 3 Zrotation Xrotation Yrotation
                JOINT RightToeBase
                {
                    OFFSET -0.000000 -11.507608 26.556021
                    CHANNELS 3 Zrotation Xrotation Yrotation
                    End Site
                    {
                        OFFSET -0.000000 0.000000 7.081605
                    }
                }
            }
        }
    }
}
MOTION
Frames:    4
Frame Time:    0.008333
25.109016    151.332520    -99.069939    -1.790375    -3.602459    47.401772    -0.286247    -2.566360    -3.984980    -5.590044    2.037005    -1.227662    13.120297    -5.871667    -6.377470    5.240826    8.298511    -8.919975    9.993494    6.225120    -24.214270    -25.044960    22.382122    -68.979691    -16.738516    -1.008014    -87.486900    17.708878    -17.758438    -5.124755    -13.194077    -6.300790    -3.060414    24.466772    -24.847837    64.774193    -9.121185    -9.646094    47.315514    -10.055680    -8.291356    29.284128    3.781480    -4.481804    -6.941262    -16.768496    43.966324    -18.250845    23.553986    -28.409580    49.476624    0.000000    0.000000    0.000000    -2.260913    -34.358192    -6.485158    13.266437    20.216503    -17.917686    -6.962554    19.224489    -6.091914    0.000000    0.000000    0.000000    
25.231043    151.355118    -98.871841    -1.847114    -3.591414    47.385895    -0.272040    -2.541580    -3.981251    -5.554490    2.005413    -1.228710    13.123456    -5.933144    -6.356980    5.270818    8.281585    -8.903515    10.018662    6.202690    -24.208521    -25.042032    22.399937    -69.022018    -16.693699    -1.017586    -87.550362    17.700161    -17.746454    -5.155715    -13.166635    -6.344074    -3.040060    24.398649    -24.830612    64.708878    -9.149513    -9.589904    47.293709    -10.129068    -8.247436    29.322208    3.804905    -4.406858    -7.066517    -16.800180    43.861500    -18.156441    23.538345    -28.425552    49.542027    0.000000    0.000000    0.000000    -2.201448    -34.353134    -6.280229    13.354566    20.271997    -17.964767    -6.996799    19.035624    -6.147884    0.000000    0.000000    0.000000    
25.341204    151.367859    -98.686966    -1.906773    -3.563737    47.407349    -0.268322    -2.550545    -4.000018    -5.413309    2.003140    -1.236711    12.881011    -5.958747    -6.406498    5.408111    8.237281    -8.896934    9.831107    6.149399    -24.214970    -24.951567    22.443472    -68.943886    -16.557508    -1.035550    -87.696167    17.537886    -17.664333    -5.140641    -13.335404    -6.308691    -3.063015    24.515924    -24.894642    64.787849    -9.070960    -9.580929    47.284184    -10.107025    -8.264215    29.283709    3.826977    -4.354574    -7.109209    -16.738174    43.782166    -18.214403    23.524151    -28.457077    49.596985    0.000000    0.000000    0.000000    -2.169319    -34.359917    -6.092057    13.455470    20.314806    -17.922535    -7.046994    18.845760    -6.342557    0.000000    0.000000    0.000000    
25.447237    151.371475    -98.506805    -1.968322    -3.531415    47.434040    -0.263751    -2.527058    -4.014080    -5.401791    1.932535    -1.244970    12.986586    -5.976971    -6.378479    5.311738    8.190586    -8.895903    9.899815    6.161142    -24.238409    -24.969971    22.416233    -68.994743    -16.521599    -1.002187    -87.742889    17.750437    -17.622257    -5.152809    -13.301166    -6.331025    -3.095685    24.497398    -24.865719    64.785324    -9.065068    -9.570697    47.231323    -10.090460    -8.253733    29.246614    3.860790    -4.306142    -7.115668    -16.682354    43.703876    -18.271114    23.485790    -28.513784    49.621708    0.000000    0.000000    0.000000    -2.130637    -34.365845    -5.893455    13.546622    20.341602    -17.873137    -7.088250    18.623343    -6.538713    0.000000    0.000000    0.000000    
